<?xml version="1.0" standalone="no"?>
<!DOCTYPE svg PUBLIC "-//W3C//DTD SVG 20010904//EN"
 "http://www.w3.org/TR/2001/REC-SVG-20010904/DTD/svg10.dtd">
<svg version="1.0" xmlns="http://www.w3.org/2000/svg"
 width="321.000000pt" height="321.000000pt" viewBox="0 0 321.000000 321.000000"
 preserveAspectRatio="xMidYMid meet">
<metadata>
Created by potrace 1.14, written by Peter Selinger 2001-2017
</metadata>
<g transform="translate(0.000000,321.000000) scale(0.100000,-0.100000)"
fill="#000000" stroke="none">
<path d="M895 3119 c-24 -9 -58 -28 -77 -43 -19 -14 -38 -24 -41 -21 -4 3 -5
2 -3 -1 2 -3 -7 -17 -20 -31 -24 -26 -54 -79 -54 -95 0 -4 -9 -27 -19 -51 -36
-79 -81 -250 -81 -307 0 -15 -11 -75 -24 -132 -39 -165 -51 -306 -37 -466 14
-164 31 -311 39 -332 3 -8 4 -18 4 -22 -1 -4 5 -58 14 -120 9 -62 15 -124 15
-137 -1 -12 2 -27 5 -33 3 -5 8 -40 10 -76 3 -37 7 -74 11 -82 3 -8 7 -26 8
-40 1 -14 5 -61 10 -105 4 -44 9 -93 10 -110 1 -16 6 -50 10 -75 4 -25 9 -67
10 -95 2 -27 3 -50 4 -50 2 0 7 -51 14 -145 1 -14 6 -31 11 -39 5 -8 10 -26
12 -40 1 -14 3 -26 4 -26 1 0 4 -29 6 -65 10 -160 21 -234 34 -238 5 -2 10 -8
10 -14 0 -14 25 -37 55 -48 38 -14 84 -12 141 6 55 18 100 29 293 74 206 47
709 204 788 245 15 8 36 15 45 15 9 0 20 5 23 10 3 6 13 10 20 10 8 0 47 16
87 35 40 20 73 35 73 33 0 -1 26 11 58 26 31 16 57 33 57 38 0 5 4 7 9 3 10
-6 175 88 186 105 4 6 11 8 16 4 5 -3 8 0 7 8 -2 7 3 12 9 11 15 -3 183 158
183 175 0 6 6 17 13 24 21 22 47 87 47 118 0 16 5 32 10 35 6 4 8 10 6 14 -3
4 -8 34 -11 66 -4 33 -22 98 -41 145 -77 196 -110 339 -100 445 6 70 28 158
45 179 4 6 14 28 21 49 6 20 27 63 46 94 19 31 34 65 34 76 0 34 -44 97 -67
97 -7 0 -13 3 -13 8 0 4 -18 18 -40 32 -22 14 -40 28 -40 32 0 5 -7 8 -15 8
-8 0 -15 3 -15 8 0 4 -20 18 -45 31 -25 13 -45 28 -45 32 0 5 -6 9 -14 9 -8 0
-22 8 -32 18 -10 9 -21 17 -25 17 -5 0 -19 9 -31 20 -13 11 -25 20 -28 20 -8
1 -94 59 -101 68 -3 5 -9 8 -12 8 -11 -1 -67 34 -67 42 0 4 -5 7 -10 7 -12 0
-73 41 -78 53 -2 4 -8 7 -14 7 -5 0 -23 9 -39 21 -16 11 -29 17 -29 14 0 -4
-7 0 -15 7 -28 25 -44 38 -49 38 -2 0 -59 32 -127 70 -67 39 -126 70 -131 70
-4 0 -8 5 -8 12 0 6 -3 9 -6 5 -4 -3 -25 4 -48 17 -22 13 -58 33 -78 44 -21
12 -38 19 -38 16 0 -3 -12 2 -27 10 -72 39 -189 88 -303 127 -120 41 -130 42
-249 43 -91 1 -135 -3 -166 -15z m800 -823 c17 -2 38 -7 48 -11 9 -4 23 -5 31
-2 8 3 16 2 18 -3 2 -5 14 -11 28 -14 14 -2 27 -6 30 -7 3 -1 10 -3 15 -3 6
-1 20 -8 33 -14 12 -7 26 -10 31 -7 5 3 11 2 13 -2 4 -10 100 -57 111 -55 4 1
7 -2 7 -8 0 -5 14 -17 32 -26 35 -18 128 -108 128 -124 0 -5 5 -10 10 -10 6 0
10 -5 10 -11 0 -6 9 -24 20 -40 30 -42 52 -159 51 -274 0 -55 -3 -111 -5 -125
-17 -81 -29 -129 -42 -157 -8 -17 -14 -36 -14 -41 0 -6 -6 -17 -12 -24 -7 -7
-24 -35 -38 -62 -32 -63 -127 -158 -213 -214 -81 -52 -194 -105 -207 -97 -6 4
-10 2 -10 -3 0 -5 -30 -18 -67 -28 -77 -21 -246 -26 -285 -7 -13 6 -40 18 -60
27 -21 10 -38 21 -38 26 0 6 -5 10 -11 10 -11 0 -39 24 -39 34 0 3 -8 14 -17
24 -36 38 -51 60 -46 66 4 3 2 6 -3 6 -14 0 -47 77 -39 90 3 5 1 10 -4 10 -6
0 -11 11 -11 24 0 14 -4 28 -10 31 -5 3 -10 13 -10 22 0 8 -6 29 -14 46 -14
30 -28 97 -46 212 -4 28 -8 111 -9 186 -1 112 2 148 20 205 42 139 108 229
214 293 91 55 244 77 400 57z"/>
</g>
</svg>
